<svg preserveAspectRatio="none" width="100%" height="100%" overflow="visible" style="display: block;" viewBox="0 0 21.9961 21.4199" fill="none" xmlns="http://www.w3.org/2000/svg">
<path id="Vector (Stroke)" d="M14 21.4199L4.73633 16.21H0V5.20996H4.73633L14 0V21.4199ZM5.99902 6.79492V14.624L12 17.999V3.41992L5.99902 6.79492ZM19.9961 10.7109C19.9965 9.62286 19.642 8.56367 18.9863 7.69531L18.3838 6.89746L19.9795 5.69238L20.582 6.49023C21.4999 7.70582 21.9966 9.18776 21.9961 10.7109C21.9955 12.2343 21.4971 13.7167 20.5781 14.9316L19.9756 15.7285L18.3799 14.5225L18.9834 13.7246C19.6397 12.8569 19.9956 11.7989 19.9961 10.7109ZM2 14.21H3.99902V7.20996H2V14.21ZM17.7891 8.59863C18.2481 9.20644 18.4963 9.94732 18.4961 10.709C18.4958 11.4708 18.2467 12.2118 17.7871 12.8193L17.1846 13.6172L15.5889 12.4102L16.1924 11.6123C16.3892 11.352 16.496 11.0344 16.4961 10.708C16.4961 10.3817 16.39 10.0641 16.1934 9.80371L15.5898 9.00586L17.1865 7.7998L17.7891 8.59863Z" fill="var(--fill-0, black)"/>
</svg>
